<?xml version="1.0" encoding="UTF-8" standalone="no"?>
<svg xmlns="http://www.w3.org/2000/svg" viewBox="0 0 600 300" width="600" height="300">
  <!-- Background -->
  <rect width="600" height="300" fill="#f5f5f5" rx="10" ry="10" />
  
  <!-- Decorative elements -->
  <circle cx="150" cy="200" r="80" fill="#e6e6e6" />
  <circle cx="450" cy="100" r="60" fill="#e6e6e6" />
  <circle cx="500" cy="250" r="30" fill="#e6e6e6" />
  
  <!-- Gear icon -->
  <g transform="translate(300, 130) scale(0.8)">
    <!-- Outer gear -->
    <path d="M60-30H40l-5-17.9c-1.6-0.5-3.3-1.1-4.8-1.8l-15,10.9l-14.1-14.1l10.9-15c-0.7-1.6-1.3-3.2-1.8-4.8L-30-77.9v-20l17.9-5c0.5-1.6,1.1-3.3,1.8-4.8l-10.9-15l14.1-14.1l15,10.9c1.6-0.7,3.2-1.3,4.8-1.8l5-17.9h20l5,17.9c1.6,0.5,3.3,1.1,4.8,1.8l15-10.9l14.1,14.1l-10.9,15c0.7,1.6,1.3,3.2,1.8,4.8L77.9-97.9v20l-17.9,5c-0.5,1.6-1.1,3.3-1.8,4.8l10.9,15l-14.1,14.1l-15-10.9c-1.6,0.7-3.2,1.3-4.8,1.8L60-30z" fill="#4a90e2" />
    
    <!-- Inner circle -->
    <circle cx="0" cy="-87.9" r="25" fill="#ffffff" />
  </g>
  
  <!-- Text -->
  <text x="300" y="220" font-family="Arial, sans-serif" font-size="36" font-weight="bold" text-anchor="middle" fill="#4a90e2">COMING SOON</text>
  
  <!-- Subtitle -->
  <text x="300" y="250" font-family="Arial, sans-serif" font-size="16" text-anchor="middle" fill="#666">We're working on something amazing!</text>
</svg>